<?xml version="1.0" encoding="UTF-8"?>
<svg id="Camada_1" data-name="Camada 1" xmlns="http://www.w3.org/2000/svg" viewBox="0 0 600.42 193.18">
  <defs>
    <style>
      .cls-1 {
        stroke-width: 15.04px;
      }

      .cls-1, .cls-2, .cls-3 {
        fill: none;
        stroke: #000;
        stroke-linecap: round;
        stroke-linejoin: round;
      }

      .cls-4 {
        fill: #020202;
      }

      .cls-2 {
        stroke-width: 15.04px;
      }

      .cls-3 {
        stroke-width: 15px;
      }
    </style>
  </defs>
  <path class="cls-3" d="M114.5,7.5v62.16c0,24.21-19.63,43.84-43.84,43.84H7.5v-62.17C7.5,27.12,27.12,7.5,51.33,7.5h63.17Z"/>
  <line class="cls-3" x1="7.5" y1="183.14" x2="7.5" y2="63.14"/>
  <line class="cls-3" x1="7.5" y1="113.79" x2="113.57" y2="7.72"/>
  <path class="cls-2" d="M284.36,95.84v61.46c0,14.39-11.6,26.04-25.92,26.04h-28.17c-14.31,0-25.91-11.65-25.91-26.04v-61.46"/>
  <line class="cls-3" x1="155.25" y1="183.14" x2="155.25" y2="8.14"/>
  <polyline class="cls-2" points="413.46 95.84 413.46 139.21 373.54 183.34 373.46 183.34 373.37 183.34 333.46 139.21 333.46 95.84"/>
  <line class="cls-3" x1="462.57" y1="185.46" x2="462.57" y2="97.96"/>
  <path class="cls-1" d="M592.91,185.67v-61.46c0-14.39-11.6-26.04-25.92-26.04h-28.17c-14.31,0-25.91,11.65-25.91,26.04v61.46"/>
  <line class="cls-3" x1="512.91" y1="147.67" x2="592.91" y2="147.67"/>
  <circle class="cls-4" cx="462.57" cy="71.91" r="8.22"/>
  <path class="cls-4" d="M454.35,71.91c0-1.22.14-2.68.63-4.27,1.65-5.42,7.35-12.15,7.6-12.15.26,0,5.66,7,7.4,12.18.52,1.56.75,3.01.82,4.24h-16.45Z"/>
</svg>